<mxfile host="app.diagrams.net" modified="2023-03-17T23:16:29.939Z" agent="5.0 (Windows NT 10.0; Win64; x64) AppleWebKit/537.36 (KHTML, like Gecko) Chrome/111.0.0.0 Safari/537.36" etag="iYh9lBm5bDsCfVcexpPF" version="20.8.5" type="github">
  <diagram id="O41cK3aXR9_lKQtKVQWB" name="第 1 页">
    <mxGraphModel dx="1045" dy="633" grid="1" gridSize="10" guides="1" tooltips="1" connect="1" arrows="1" fold="1" page="1" pageScale="1" pageWidth="827" pageHeight="1169" math="0" shadow="0">
      <root>
        <mxCell id="0" />
        <mxCell id="1" parent="0" />
        <mxCell id="WZtwdwamKAZmjfoW1XBv-1" value="&lt;b style=&quot;color: rgb(32, 33, 34); font-family: sans-serif; font-size: 14px; text-align: left; background-color: rgb(255, 255, 255);&quot;&gt;Normal&lt;/b&gt;&amp;nbsp;mode" style="rounded=0;whiteSpace=wrap;html=1;" parent="1" vertex="1">
          <mxGeometry x="360" y="270" width="120" height="60" as="geometry" />
        </mxCell>
        <mxCell id="WZtwdwamKAZmjfoW1XBv-4" value="&lt;b style=&quot;color: rgb(32, 33, 34); font-family: sans-serif; font-size: 14px; text-align: left; background-color: rgb(255, 255, 255);&quot;&gt;Command-line&lt;/b&gt;&amp;nbsp;or&amp;nbsp;&lt;b style=&quot;color: rgb(32, 33, 34); font-family: sans-serif; font-size: 14px; text-align: left; background-color: rgb(255, 255, 255);&quot;&gt;Cmdline&lt;/b&gt;&lt;span style=&quot;color: rgb(32, 33, 34); font-family: sans-serif; font-size: 14px; text-align: left; background-color: rgb(255, 255, 255);&quot;&gt;&amp;nbsp;mode&lt;/span&gt;" style="rounded=0;whiteSpace=wrap;html=1;" parent="1" vertex="1">
          <mxGeometry x="144" y="450" width="240" height="60" as="geometry" />
        </mxCell>
        <mxCell id="WZtwdwamKAZmjfoW1XBv-5" value="&lt;font style=&quot;font-size: 38px;&quot;&gt;:&lt;/font&gt;" style="endArrow=classic;html=1;rounded=0;exitX=0.663;exitY=-0.022;exitDx=0;exitDy=0;exitPerimeter=0;entryX=0.663;entryY=-0.022;entryDx=0;entryDy=0;entryPerimeter=0;" parent="1" target="WZtwdwamKAZmjfoW1XBv-4" edge="1">
          <mxGeometry width="50" height="50" relative="1" as="geometry">
            <mxPoint x="384" y="330" as="sourcePoint" />
            <mxPoint x="334" y="380" as="targetPoint" />
            <Array as="points">
              <mxPoint x="350" y="380" />
            </Array>
          </mxGeometry>
        </mxCell>
        <mxCell id="WZtwdwamKAZmjfoW1XBv-10" value="&lt;b style=&quot;color: rgb(32, 33, 34); font-family: sans-serif; font-size: 14px; text-align: left; background-color: rgb(255, 255, 255);&quot;&gt;Insert&lt;/b&gt;&amp;nbsp;mode" style="rounded=0;whiteSpace=wrap;html=1;fontSize=12;" parent="1" vertex="1">
          <mxGeometry x="420" y="450" width="140" height="60" as="geometry" />
        </mxCell>
        <mxCell id="WZtwdwamKAZmjfoW1XBv-14" value="i" style="endArrow=classic;html=1;rounded=0;fontSize=30;entryX=0.5;entryY=0;entryDx=0;entryDy=0;exitX=0.75;exitY=1;exitDx=0;exitDy=0;" parent="1" source="WZtwdwamKAZmjfoW1XBv-1" target="WZtwdwamKAZmjfoW1XBv-10" edge="1">
          <mxGeometry width="50" height="50" relative="1" as="geometry">
            <mxPoint x="480" y="340" as="sourcePoint" />
            <mxPoint x="510" y="460" as="targetPoint" />
          </mxGeometry>
        </mxCell>
        <mxCell id="WZtwdwamKAZmjfoW1XBv-3" value="vi xxx" style="text;html=1;strokeColor=none;fillColor=none;align=center;verticalAlign=middle;whiteSpace=wrap;rounded=0;" parent="1" vertex="1">
          <mxGeometry x="216" y="205" width="60" height="30" as="geometry" />
        </mxCell>
        <mxCell id="03h1jkLnrWKf0e3lkGa--2" value="" style="endArrow=classic;html=1;rounded=0;fontSize=30;exitX=1;exitY=0.5;exitDx=0;exitDy=0;entryX=0.458;entryY=-0.05;entryDx=0;entryDy=0;entryPerimeter=0;" edge="1" parent="1" source="WZtwdwamKAZmjfoW1XBv-3" target="WZtwdwamKAZmjfoW1XBv-1">
          <mxGeometry width="50" height="50" relative="1" as="geometry">
            <mxPoint x="334" y="220" as="sourcePoint" />
            <mxPoint x="384" y="170" as="targetPoint" />
          </mxGeometry>
        </mxCell>
      </root>
    </mxGraphModel>
  </diagram>
</mxfile>
